<svg id="Layer_2" data-name="Layer 2" xmlns="http://www.w3.org/2000/svg" viewBox="0 0 28 28"><defs><style>.cls-1{fill:none;}.cls-2{fill:#00845d;}.cls-3{fill:#fff;}</style></defs><title>Paxos_Standard_Icon_Fnl</title><rect class="cls-1" width="28" height="28"/><circle class="cls-2" cx="14" cy="14" r="14"/><path class="cls-3" d="M24.06,12.05c1-2.79.53-5-1.64-5.37-2.38-.44-4.24-.57-6-1.82-2.2-1.54-4.13-1-5.81.52C4.52,5.18,6.29,9.57,4.31,14c-2.28,5.14.27,7.1,4.06,7.71a7,7,0,0,0,2.27,1.78c5.49,2.66,5.84-2.28,11.65-4.78C25.56,17.34,25.57,14.59,24.06,12.05ZM10.74,9.37c2.85-2,6.5-1.23,7.83,1.68s.94,6.11-1.69,7.8a5.65,5.65,0,1,1-6.14-9.49Z"/></svg>