<?xml version="1.0" encoding="utf-8"?>
<!-- Generator: Adobe Illustrator 19.2.0, SVG Export Plug-In . SVG Version: 6.00 Build 0)  -->
<svg version="1.1" id="Layer_1" xmlns="http://www.w3.org/2000/svg" xmlns:xlink="http://www.w3.org/1999/xlink" x="0px" y="0px"
	 viewBox="0 0 480.7 542.6" style="enable-background:new 0 0 480.7 542.6;" xml:space="preserve">
<g>
	<polygon points="74.5,114.4 114.5,91.4 119.9,100.7 267.3,15.6 256.6,9.4 245.7,3.1 240.3,0 0,138.8 0,145 69.1,105.1 	"/>
	<polygon points="74.5,201.8 190.1,135 195.5,144.4 342.9,59.3 332.1,53 321.4,46.8 316,43.7 0,226.1 0,232.3 69,192.4 	"/>
	<polygon points="74.5,245.5 227.9,156.9 233.3,166.2 380.8,81 370,74.9 359.2,68.6 353.7,65.5 0,269.7 0,276 69,236.1 	"/>
	<polygon points="74.5,289.1 266.7,178.1 272.2,187.4 418.6,102.9 407.7,96.6 396.9,90.4 391.5,87.3 0,313.4 0,319.6 69,279.7 	"/>
	<polygon points="74.5,332.7 304.5,199.9 309.9,209.3 456.3,124.7 445.5,118.5 434.8,112.2 429.4,109.1 0,357 0,363.2 69,323.4 	"/>
	<polygon points="472.6,134.1 467.2,130.9 0,400.7 0,406.9 69,367.1 74.5,376.4 304.5,243.6 309.9,252.9 480.7,154.4 480.7,141.9 
		480.7,138.8 	"/>
	<polygon points="29.7,433.4 68.4,411.1 73.8,420.4 303.5,287.8 308.9,297.2 480.7,198 480.7,185.5 480.7,173 480.7,166.8 
		24.3,430.3 	"/>
	<polyline points="303.5,331.5 308.9,340.9 480.7,241.7 480.7,229.2 480.7,216.7 480.7,210.5 62.1,452.1 67.5,455.2 106.9,432.5 
		112.2,441.9 	"/>
	<polygon points="105.3,477.1 144.7,454.3 150.1,463.7 303.5,375.1 308.9,384.5 480.7,285.3 480.7,272.8 480.7,260.4 480.7,254.1 
		99.9,473.9 	"/>
	<polygon points="143.1,498.9 182.5,476.2 187.9,485.5 303.5,418.8 308.9,428.1 480.7,328.9 480.7,316.5 480.7,304 480.7,297.8 
		137.7,495.8 	"/>
	<polygon points="175.5,517.6 180.9,520.7 220.3,498 225.6,507.4 303.5,462.4 308.9,471.8 480.7,372.6 480.7,360.1 480.7,347.6 
		480.7,341.4 	"/>
	<polygon points="218.7,542.6 258.1,519.8 263.5,529.2 303.5,506 308.9,515.4 480.7,416.3 480.7,403.8 480.7,391.3 480.7,385.1 
		213.3,539.5 	"/>
	<polygon points="305.2,37.4 294.3,31.2 294.3,31.2 283.5,25 278.1,21.8 0,182.4 0,188.6 69,148.8 74.5,158.1 152.3,113.2 
		157.7,122.6 	"/>
</g>
</svg>
