<?xml version="1.0" encoding="utf-8"?>
<!-- Generator: Adobe Illustrator 16.0.0, SVG Export Plug-In . SVG Version: 6.00 Build 0)  -->
<!DOCTYPE svg PUBLIC "-//W3C//DTD SVG 1.1//EN" "http://www.w3.org/Graphics/SVG/1.1/DTD/svg11.dtd">
<svg version="1.1" id="Layer_2" xmlns="http://www.w3.org/2000/svg" xmlns:xlink="http://www.w3.org/1999/xlink" x="0px" y="0px"
	 width="512px" height="512px" viewBox="0 0 512 512" enable-background="new 0 0 512 512" xml:space="preserve">
<path fill="#4A267D" d="M250.495,77.132L250.495,77.132c20.831,0.066,36.437,21.217,36.644,50.821
	c0.075,10.624-2.438,19.683-7.419,27.668c-0.598,0.967-0.783,3.216,0.515,4.209c1.048,0.802,3.243,1.104,4.988-0.993
	c9.639-11.567,17.485-27.191,19.557-44.818c5.469-46.628-20.219-77.472-54.418-77.574c-34.196,0.103-59.892,30.946-54.418,77.574
	c2.065,17.627,9.92,33.251,19.559,44.818c1.745,2.098,3.933,1.795,4.988,0.993c1.296-0.993,1.113-3.242,0.507-4.209
	c-4.973-7.985-7.485-17.044-7.412-27.668c0.206-29.604,15.806-50.755,36.637-50.821h0.008H250.495z"/>
<path fill="#4A267D" d="M436.059,393.426c-9.218-38.104-49.68-56.673-87.782-47.457c-10.463,2.528-17.841,4.461-25.431,7.775
	l-0.087,0.032c0,0-164.006,79.476-166.085,80.111c-17.639,8.229-43.092,4.169-53.281-14.456
	c-10.177-18.616-2.8-42.244,16.477-52.798c8.577-4.688,20.05-7.109,31.045-6.742c3.992-0.06,7.096,0.042,8.052-0.06
	c1.918-0.205,3.257-1.36,3.531-3.278c0.221-1.551,0.116-3.898-2.822-5.248c-13.935-6.379-26.8-9.949-42.865-6.055
	c-38.103,9.216-59.663,46.593-50.445,84.695c9.219,38.103,49.68,56.673,87.782,47.444c10.465-2.525,17.841-4.45,25.432-7.764
	l0.089-0.031c0,0,164.003-79.477,166.08-80.111c17.642-8.229,43.094-4.171,53.284,14.459c10.177,18.605,2.801,42.237-16.476,52.795
	c-8.576,4.687-20.051,7.108-31.044,6.742c-3.995,0.059-7.098-0.052-8.055,0.051c-1.915,0.205-3.257,1.365-3.529,3.287
	c-0.221,1.547-0.12,3.897,2.821,5.238c13.935,6.383,26.8,9.949,42.865,6.064C423.717,468.905,445.277,431.532,436.059,393.426z"/>
<path fill="#4A267D" d="M347.163,125.057c-2.961-3.799-6.616-4.536-9.15-3.534c-3.132,1.235-3.36,4.95-2.439,6.636
	c7.716,14.068,12.225,30.169,12.225,47.354c0,53.939-43.725,97.655-97.663,97.655c-53.94,0-97.666-43.716-97.666-97.655
	c0-17.185,4.518-33.285,12.225-47.354c0.929-1.686,0.7-5.4-2.432-6.636c-2.535-1.002-6.188-0.265-9.151,3.534
	c-16.358,21.018-26.247,47.367-26.247,76.061c0,68.09,55.191,123.279,123.271,123.279c68.086,0,123.277-55.189,123.277-123.279
	C373.412,172.424,363.523,146.074,347.163,125.057z"/>
</svg>
