<?xml version="1.0" encoding="utf-8"?>
<!-- Generator: Adobe Illustrator 22.1.0, SVG Export Plug-In . SVG Version: 6.00 Build 0)  -->
<svg version="1.1" id="Layer_1" xmlns="http://www.w3.org/2000/svg" xmlns:xlink="http://www.w3.org/1999/xlink" x="0px" y="0px"
	 viewBox="0 0 512 512" style="enable-background:new 0 0 512 512;" xml:space="preserve">
<style type="text/css">
	.st0{fill:#345972;}
	.st1{fill:#FFFFFF;}
</style>
<g>
	<circle class="st0" cx="256" cy="256" r="226.7571869"/>
	<path class="st0" d="M256,17.3378754c131.8079529,0,238.6621704,106.8524094,238.6621704,238.6621246
		S387.8079529,494.6621399,256,494.6621399S17.3378429,387.8097229,17.3378429,256S124.1920319,17.3378754,256,17.3378754 M256,6
		C118.1494293,6,6,118.1497421,6,256s112.1494293,250,250,250s250-112.1497498,250-250S393.8505859,6,256,6L256,6z"/>
	<g>
		<path class="st1" d="M312.6893005,227.6554413H142.6215057v0.0001068c0,31.3085327,25.3806,56.6891479,56.6892548,56.6891479
			H369.37854l0,0C369.37854,253.0360413,343.9979248,227.6554413,312.6893005,227.6554413z"/>
		<path class="st1" d="M199.3107605,170.9659424H369.37854c0-31.3086548-25.3808289-56.6893921-56.6892395-56.6893921h-113.37854
			c-31.3084106,0-56.6892548,25.3807373-56.6892548,56.6893921v43.0838928h56.6892548V170.9659424z"/>
		<path class="st1" d="M312.6893005,341.0339661H142.6215057c0,31.3086548,25.3808441,56.6894836,56.6892548,56.6894836h113.37854
			c31.3084106,0,56.6892395-25.3808289,56.6892395-56.6894836v-43.0839233h-56.6892395V341.0339661z"/>
	</g>
</g>
</svg>
